# xmcd
#
# Track frame offsets: 
#        150
#        21190
#        37494
#        50385
#        65953
#        82533
#        98773
#        115257
#
# Disc length: 1821 seconds
#
# Revision: 0
# Processed by: cddbd v1.5.2PL0 Copyright (c) Steve Scherf et al.
# Submitted via: ExactAudioCopy v0.99pb4
#
DISCID=66071b08
DTITLE=Mikey Powell and the Villains Trust - Strange Bedfellows
DYEAR=2008
DGENRE=Bluegrass
TTITLE0=Covered Wagons
TTITLE1=Camouflage Toad
TTITLE2=Main Street
TTITLE3=On the Line
TTITLE4=Sheila
TTITLE5=Breaking Promises
TTITLE6=Proud Father
TTITLE7=Fun Little Diddy
EXTD=
EXTT0=
EXTT1=
EXTT2=
EXTT3=
EXTT4=
EXTT5=
EXTT6=
EXTT7=
PLAYORDER=
